<?xml version="1.0" encoding="utf-8"?>
<!-- Generator: Adobe Illustrator 19.1.0, SVG Export Plug-In . SVG Version: 6.00 Build 0)  -->
<!DOCTYPE svg PUBLIC "-//W3C//DTD SVG 1.1//EN" "http://www.w3.org/Graphics/SVG/1.1/DTD/svg11.dtd">
<svg version="1.1" id="Layer_1" xmlns="http://www.w3.org/2000/svg" xmlns:xlink="http://www.w3.org/1999/xlink" x="0px" y="0px"
	 viewBox="185 108.3 142 137.7" style="enable-background:new 185 108.3 142 137.7;" xml:space="preserve">
<style type="text/css">
	.st0{fill:#F26722;}
	.st1{fill:#FFFFFF;}
	.st2{fill:#FFFFFF;stroke:#FFFFFF;stroke-width:2;stroke-miterlimit:10;}
	.st3{fill:#FFFFFF;stroke:#FFFFFF;stroke-miterlimit:10;}
	.st4{fill:none;stroke:#FFFFFF;stroke-miterlimit:10;}
	.st5{fill:none;stroke:#FFFFFF;stroke-width:2;stroke-miterlimit:10;}
	.st6{fill:#FFFFFF;stroke:#F26722;stroke-width:2;stroke-miterlimit:10;}
	.st7{fill:none;}
</style>
<path class="st0" d="M256,241.1c29.6,0,53.4-5,71-8.1V108.3H185V233C201.6,236.1,226.4,241.1,256,241.1z"/>
<g>
	<g>
		<path class="st1" d="M242.3,148.6v-15.1h-26.4v36.4c6.8-6.7,15.2-13.7,24.7-20.2C241.2,149.3,241.7,148.9,242.3,148.6z"/>
		<path class="st2" d="M215.9,219h26.4v-14.8c-9.8,4.9-19,8.2-26.4,9.6V219z"/>
		<path class="st2" d="M271.2,186.3V219h26.5v-56.9C291.1,169.9,282,178.3,271.2,186.3z"/>
		<path class="st3" d="M271.2,133.5v3.9c3.7-1.6,7.2-2.9,10.5-3.9H271.2z"/>
		<path class="st4" d="M197.8,210.4c2.7,4,9.3,4.9,18,3.3v-39C200.7,189.6,193.1,203.6,197.8,210.4z"/>
		<path class="st5" d="M271.2,163.4v-26c-9,3.9-18.9,9.3-28.9,16v10H271.2z"/>
		<path class="st5" d="M297.7,162.1c9.9-11.6,14.2-21.9,10.4-27.5c-3.6-5.2-13.4-5.2-26.4-1.2h16V162.1z"/>
		<path class="st4" d="M242.3,184.4v19.8c7.4-3.7,15.2-8.3,23-13.6c2-1.4,3.9-2.8,5.8-4.2v-1.9h-28.8V184.4z"/>
		<path class="st2" d="M297.7,162.1v-28.7h-16c-3.3,1-6.9,2.4-10.5,3.9v26h-28.9v-10l0,0c-10.2,6.9-19.2,14.2-26.4,21.3v39
			c7.5-1.4,16.6-4.7,26.4-9.6v-19.8h28.9v1.9C282,178.3,291.1,169.9,297.7,162.1z"/>
	</g>
	<circle class="st6" cx="295.6" cy="165.7" r="15.9"/>
</g>
<rect id="_x3C_Slice_x3E_" x="198.8" y="118.2" class="st7" width="114.5" height="106.6"/>
</svg>
