<?xml version="1.0" encoding="utf-8"?>
<!-- Generator: Adobe Illustrator 19.1.0, SVG Export Plug-In . SVG Version: 6.00 Build 0)  -->
<!DOCTYPE svg PUBLIC "-//W3C//DTD SVG 1.1//EN" "http://www.w3.org/Graphics/SVG/1.1/DTD/svg11.dtd">
<svg version="1.1" xmlns="http://www.w3.org/2000/svg" xmlns:xlink="http://www.w3.org/1999/xlink" x="0px" y="0px"
	 viewBox="-210 216.8 142 176.2" style="enable-background:new -210 216.8 142 176.2;" xml:space="preserve">
<style type="text/css">
	.st0{fill:#F96500;}
	.st1{fill:#FFFFFF;}
	.st2{fill:none;stroke:#AFAEAE;stroke-miterlimit:10;}
	.st3{fill:#F05D22;}
	.st4{fill:none;}
	.st5{opacity:0.5;fill:none;stroke:#FFFFFF;stroke-miterlimit:10;}
</style>
<g id="Layer_2">
	<path class="st0" d="M-138.7,379.6c29.6,0,53.4-6.2,71-10V216.2h-142v153.4C-193,373.4-168.3,379.6-138.7,379.6z"/>
</g>
<g id="Layer_1" xmlns:sketch="http://www.bohemiancoding.com/sketch/ns">
	<title>Logo Copy + logotype 2</title>
	<desc>Created with Sketch.</desc>
	<g id="Page-1" sketch:type="MSPage">
	</g>
	<g>
		<circle class="st1" cx="-138.7" cy="306.8" r="49.2"/>
		<g>
			<g>
				<path d="M-148.1,288.9v-9.8h-17.1v23.6c4.4-4.4,9.9-8.8,16-13.1C-148.8,289.4-148.4,289.1-148.1,288.9z"/>
				<path d="M-165.1,334.4h17.1v-9.6c-6.4,3.2-12.3,5.3-17.1,6.2V334.4z"/>
				<path d="M-129.4,313.3v21.1h17.2v-36.8C-116.5,302.7-122.4,308.1-129.4,313.3z"/>
				<path d="M-129.4,279.1v2.5c2.4-1,4.7-1.9,6.8-2.5H-129.4z"/>
				<path class="st2" d="M-176.8,328.9c1.8,2.6,6,3.2,11.7,2.1v-25.2C-174.9,315.4-179.8,324.5-176.8,328.9z"/>
				<path class="st2" d="M-129.4,298.5v-16.8c-5.8,2.5-12.2,6-18.7,10.3v6.5H-129.4z"/>
				<path class="st2" d="M-112.2,297.6c6.4-7.5,9.2-14.2,6.7-17.8c-2.3-3.3-8.7-3.4-17-0.8h10.3V297.6z"/>
				<path class="st2" d="M-148.1,312v12.8c4.8-2.4,9.8-5.3,14.9-8.8c1.3-0.9,2.6-1.8,3.8-2.7V312H-148.1z"/>
				<path d="M-112.2,297.6v-18.5h-10.3c-2.2,0.7-4.4,1.5-6.8,2.5v16.8h-18.7V292c0,0,0,0,0,0c-6.6,4.4-12.4,9.2-17.1,13.8V331
					c4.8-0.9,10.7-3,17.1-6.2V312h18.7v1.3C-122.4,308.1-116.5,302.7-112.2,297.6z"/>
			</g>
			<circle class="st3" cx="-113.6" cy="299.9" r="10.3"/>
		</g>
	</g>
	<rect id="_x3C_Slice_x3E_" x="-189.5" y="258.7" class="st4" width="101" height="94"/>
	<circle class="st5" cx="-138.7" cy="306.8" r="53.7"/>
</g>
</svg>
