<?xml version="1.0" encoding="utf-8"?>
<!-- Generator: Adobe Illustrator 19.1.0, SVG Export Plug-In . SVG Version: 6.00 Build 0)  -->
<!DOCTYPE svg PUBLIC "-//W3C//DTD SVG 1.1//EN" "http://www.w3.org/Graphics/SVG/1.1/DTD/svg11.dtd">
<svg version="1.1" xmlns="http://www.w3.org/2000/svg" xmlns:xlink="http://www.w3.org/1999/xlink" x="0px" y="0px"
	 viewBox="0 0 116.6 90.4" style="enable-background:new 0 0 116.6 90.4;" xml:space="preserve">
<style type="text/css">
	.st0{fill:#4555A5;}
	.st1{fill:#F26722;}
	.st2{fill:none;}
	.st3{fill:#FFFFFF;}
	.st4{fill:#FFFFFF;stroke:#FFFFFF;stroke-width:2;stroke-miterlimit:10;}
	.st5{fill:#FFFFFF;stroke:#FFFFFF;stroke-miterlimit:10;}
	.st6{fill:none;stroke:#FFFFFF;stroke-miterlimit:10;}
	.st7{fill:none;stroke:#FFFFFF;stroke-width:2;stroke-miterlimit:10;}
	.st8{fill:#FFFFFF;stroke:#4555A5;stroke-width:2;stroke-miterlimit:10;}
</style>
<g id="Layer_1">
	<rect x="-2.9" y="-7.7" class="st0" width="123.4" height="110.2"/>
	<path class="st1" d="M231,176.9c29.6,0,53.4-5,71-8.1V44H160v124.7C176.7,171.8,201.4,176.9,231,176.9z"/>
	<rect id="_x3C_Slice_x3E_" x="-1.2" y="-13.7" class="st2" width="114.5" height="106.6"/>
	<g>
		<g>
			<path class="st3" d="M46.3,19V3.9H19.9v36.4c6.8-6.7,15.2-13.7,24.7-20.2C45.2,19.8,45.8,19.4,46.3,19z"/>
			<path class="st4" d="M19.9,89.4h26.4V74.6c-9.8,4.9-19,8.2-26.4,9.6V89.4z"/>
			<path class="st4" d="M75.2,56.8v32.6h26.5V32.5C95.2,40.3,86.1,48.8,75.2,56.8z"/>
			<path class="st5" d="M75.2,3.9v3.9c3.7-1.6,7.2-2.9,10.5-3.9H75.2z"/>
			<path class="st6" d="M1.9,80.9c2.7,4,9.3,4.9,18,3.3v-39C4.8,60-2.8,74,1.9,80.9z"/>
			<path class="st7" d="M75.2,33.8v-26c-9,3.9-18.9,9.3-28.9,16v10H75.2z"/>
			<path class="st7" d="M101.8,32.5c9.9-11.6,14.2-21.9,10.4-27.5c-3.6-5.2-13.4-5.2-26.4-1.2h16V32.5z"/>
			<path class="st6" d="M46.3,54.8v19.8c7.4-3.7,15.2-8.3,23-13.6c2-1.4,3.9-2.8,5.8-4.2v-1.9H46.3z"/>
			<path class="st4" d="M101.8,32.5V3.9h-16c-3.3,1-6.9,2.4-10.5,3.9v26H46.3l0-10c0,0,0,0,0,0C36.1,30.7,27.2,38,19.9,45.2v39
				c7.5-1.4,16.6-4.7,26.4-9.6V54.8h28.9v1.9C86.1,48.8,95.2,40.3,101.8,32.5z"/>
		</g>
		<circle class="st8" cx="99.6" cy="36.1" r="15.9"/>
	</g>
</g>
<g id="Layer_2">
</g>
</svg>
